<?xml version="1.0" encoding="utf-8"?>
<!-- Generator: Adobe Illustrator 27.5.0, SVG Export Plug-In . SVG Version: 6.00 Build 0)  -->
<svg version="1.1" xmlns="http://www.w3.org/2000/svg" xmlns:xlink="http://www.w3.org/1999/xlink" x="0px" y="0px"
	 viewBox="0 0 550 400" style="enable-background:new 0 0 550 400;" xml:space="preserve">
<g id="Layer_3">
	<g>
		<g>
			<defs>
				<rect id="SVGID_1_" width="550" height="400"/>
			</defs>
			<clipPath id="SVGID_00000111908399877673329520000002322663305561039018_">
				<use xlink:href="#SVGID_1_"  style="overflow:visible;"/>
			</clipPath>
			
				<rect style="clip-path:url(#SVGID_00000111908399877673329520000002322663305561039018_);fill:#9BB3E8;" width="550" height="400"/>
			<path style="clip-path:url(#SVGID_00000111908399877673329520000002322663305561039018_);fill:#9BB3E8;" d="M259.487,401H53.735
				H7.984v5.4c-1.134-3.184-2.243-6.392-3.327-9.623c-4.338-12.924-8.279-26.217-11.801-39.843H-1V3.674h-1.115
				c0.977-3.38,1.98-6.738,3.008-10.075V-1h534.006v-2.81c0.479,1.671,0.952,3.348,1.418,5.03c0.932,3.364,1.839,6.75,2.72,10.156
				c7.043,27.25,12.407,55.827,15.898,85.422H551v182.904h1.331c-4.332,29.484-10.507,57.896-18.323,84.935
				c-3.908,13.519-8.227,26.695-12.93,39.491V401H259.487z"/>
			<path style="clip-path:url(#SVGID_00000111908399877673329520000002322663305561039018_);fill:#9CB4E8;" d="M259.572,401H56.527
				H11.378v2.476c-1.119-3.142-2.213-6.308-3.283-9.496c-4.281-12.754-8.17-25.872-11.646-39.318H-1V26.31h-3.067
				c1.723-6.835,3.55-13.591,5.478-20.262c0.964-3.335,1.954-6.65,2.968-9.942V-1h525.542v-5.268
				c1.942,6.555,3.783,13.196,5.521,19.919c13.901,53.784,21.172,112.801,20.292,174.631c-0.88,61.829-9.827,120.616-25.254,173.982
				c-3.857,13.342-8.118,26.344-12.76,38.971V401H259.572z"/>
			<path style="clip-path:url(#SVGID_00000111908399877673329520000002322663305561039018_);fill:#9DB6E8;" d="M259.657,401H59.319
				H16.446v4.185c-0.564-1.539-1.121-3.083-1.673-4.633c-1.104-3.1-2.184-6.224-3.24-9.37c-4.223-12.584-8.061-25.527-11.49-38.794
				c-1.715-6.633-3.327-13.347-4.834-20.137H-1V48.88h-4.254C-2.272,35.085,1.133,21.587,4.939,8.423
				C5.89,5.132,6.866,1.862,7.867-1.386V-1h518.535v-2.729c1.916,6.467,3.733,13.02,5.447,19.653
				c13.716,53.066,20.89,111.297,20.021,172.302c-0.868,61.005-9.696,119.008-24.917,171.662
				c-3.805,13.164-8.01,25.993-12.59,38.451c-1.145,3.115-2.313,6.206-3.505,9.274V401H259.657z"/>
			<path style="clip-path:url(#SVGID_00000111908399877673329520000002322663305561039018_);fill:#9EB7E9;" d="M259.742,401H62.112
				H21.503v5.734c-2.27-6.025-4.449-12.143-6.532-18.349c-4.166-12.414-7.952-25.182-11.335-38.27
				c-3.383-13.087-6.362-26.493-8.915-40.18H-1V50.708h-0.589c2.941-13.609,6.301-26.925,10.055-39.91
				c0.938-3.246,1.901-6.472,2.889-9.677c0.494-1.602,0.993-3.199,1.499-4.791V-1h510.029v-0.19
				c1.89,6.38,3.682,12.844,5.374,19.388c13.531,52.349,20.607,109.793,19.751,169.974c-0.857,60.18-9.565,117.4-24.581,169.343
				c-3.754,12.986-7.902,25.642-12.42,37.932c-1.13,3.073-2.282,6.122-3.458,9.148V401H259.742z"/>
			<path style="clip-path:url(#SVGID_00000111908399877673329520000002322663305561039018_);fill:#9FB8E9;" d="M259.827,401H64.904
				H24.851v2.685c-2.239-5.942-4.388-11.976-6.442-18.098c-4.109-12.244-7.844-24.838-11.18-37.746
				c-6.673-25.816-11.754-52.888-15.062-80.926H-1V93.637h-4.366c4.104-27.932,9.954-54.849,17.359-80.465
				c1.851-6.404,3.8-12.727,5.842-18.963V-1h500.112v-2.355c0.478,1.563,0.95,3.131,1.416,4.704
				c1.864,6.292,3.632,12.668,5.3,19.122c13.346,51.632,20.325,108.289,19.48,167.645c-0.845,59.356-9.434,115.791-24.244,167.023
				c-3.702,12.808-7.794,25.29-12.25,37.412c-1.114,3.031-2.251,6.038-3.41,9.023V401H259.827z"/>
			<path style="clip-path:url(#SVGID_00000111908399877673329520000002322663305561039018_);fill:#A1B9E9;" d="M259.912,401H67.696
				H29.873v4.013c-0.563-1.453-1.121-2.913-1.673-4.378c-2.208-5.859-4.327-11.81-6.353-17.847
				c-4.052-12.074-7.735-24.493-11.025-37.221C4.242,320.11-0.768,293.414-4.03,265.765H-1V94.895h-0.598
				C2.45,67.35,8.218,40.807,15.52,15.548c1.826-6.315,3.747-12.55,5.761-18.7V-1h491.734v-4.358
				c0.966,3.061,1.909,6.143,2.829,9.246c1.838,6.205,3.581,12.492,5.227,18.856c13.16,50.915,20.043,106.785,19.21,165.317
				c-0.833,58.531-9.303,114.183-23.907,164.703c-3.651,12.63-7.685,24.939-12.079,36.893c-2.197,5.977-4.484,11.864-6.858,17.659
				V401H259.912z"/>
			<path style="clip-path:url(#SVGID_00000111908399877673329520000002322663305561039018_);fill:#A2BBE9;" d="M259.997,401H70.488
				H34.88v5.184c-1.132-2.843-2.243-5.709-3.332-8.598c-2.177-5.777-4.266-11.644-6.263-17.595
				c-3.995-11.904-7.626-24.148-10.869-36.697C1.441,293.096-5.345,238.013-4.523,180.306
				c0.821-57.707,9.172-112.575,23.571-162.383c1.8-6.226,3.694-12.373,5.68-18.437c0.496-1.516,0.999-3.027,1.507-4.532V-1h483.301
				v-1.689c0.953,3.018,1.883,6.057,2.789,9.115c1.813,6.118,3.531,12.316,5.153,18.591c12.975,50.198,19.76,105.281,18.939,162.988
				c-0.821,57.707-9.172,112.575-23.571,162.383c-3.6,12.452-7.577,24.588-11.909,36.373c-2.166,5.893-4.421,11.697-6.762,17.41V401
				H259.997z"/>
			<path style="clip-path:url(#SVGID_00000111908399877673329520000002322663305561039018_);fill:#A3BCEA;" d="M260.082,401H73.281
				h-35.1v2.013c-1.116-2.803-2.211-5.628-3.284-8.475c-2.146-5.694-4.205-11.477-6.174-17.344
				c-3.938-11.733-7.517-23.803-10.714-36.173C5.22,291.54-1.469,237.243-0.66,180.361S8.382,69.394,22.574,20.297
				c1.774-6.137,3.641-12.196,5.599-18.173c0.979-2.988,1.98-5.956,3.004-8.903V-1h473.452v-3.466
				c0.481,1.477,0.956,2.959,1.426,4.447c0.939,2.975,1.856,5.97,2.749,8.985c1.787,6.03,3.481,12.14,5.079,18.325
				c12.789,49.481,19.478,103.777,18.668,160.66c-0.81,56.883-9.041,110.967-23.234,160.064
				c-3.548,12.274-7.469,24.237-11.739,35.853c-2.135,5.808-4.358,11.53-6.665,17.161V401H260.082z"/>
			<path style="clip-path:url(#SVGID_00000111908399877673329520000002322663305561039018_);fill:#A4BDEA;" d="M260.167,401H76.073
				H43.148v2.967c-0.561-1.37-1.116-2.745-1.666-4.126c-1.1-2.762-2.179-5.546-3.236-8.352c-2.115-5.612-4.144-11.311-6.084-17.092
				c-3.881-11.563-7.408-23.458-10.559-35.649C8.998,289.984,2.406,236.474,3.204,180.416c0.798-56.058,8.91-109.359,22.897-157.744
				c1.748-6.048,3.589-12.02,5.518-17.91c0.965-2.945,1.951-5.87,2.96-8.774V-1h465.152v-5.085
				c3.881,11.563,7.408,23.458,10.559,35.649c12.604,48.764,19.196,102.273,18.398,158.332
				c-0.798,56.058-8.91,109.359-22.897,157.744c-3.497,12.096-7.361,23.885-11.569,35.334c-2.104,5.724-4.295,11.363-6.569,16.913
				c-1.137,2.775-2.295,5.527-3.473,8.257V401H260.167z"/>
			<path style="clip-path:url(#SVGID_00000111908399877673329520000002322663305561039018_);fill:#A5BEEA;" d="M260.252,401H78.865
				H48.097v3.766c-9.001-21.415-16.692-44.269-22.901-68.292C12.777,288.427,6.282,235.705,7.068,180.471
				s8.779-107.75,22.56-155.424c1.723-5.959,3.536-11.843,5.437-17.646c0.95-2.902,1.923-5.784,2.917-8.645V-1h458.311v-2.287
				c3.824,11.393,7.299,23.113,10.404,35.124c12.419,48.047,18.914,100.769,18.127,156.003
				c-0.786,55.234-8.779,107.75-22.561,155.424c-3.445,11.918-7.252,23.534-11.399,34.814c-2.073,5.64-4.232,11.196-6.472,16.664
				c-1.12,2.734-2.261,5.446-3.422,8.135V401H260.252z"/>
			<path style="clip-path:url(#SVGID_00000111908399877673329520000002322663305561039018_);fill:#A6BFEA;" d="M260.337,401H81.657
				H51.348v0.474c-8.867-21.095-16.443-43.608-22.559-67.273c-12.233-47.329-18.631-99.265-17.857-153.675
				S19.58,74.383,33.156,27.421C36.55,15.681,40.3,4.238,44.385-6.873V-1h447.042v-3.683c0.482,1.393,0.958,2.791,1.429,4.194
				c3.767,11.223,7.19,22.768,10.248,34.6c12.233,47.329,18.631,99.265,17.857,153.675c-0.775,54.41-8.648,106.142-22.224,153.104
				c-6.788,23.481-15.001,45.77-24.465,66.604V401H260.337z"/>
			<path style="clip-path:url(#SVGID_00000111908399877673329520000002322663305561039018_);fill:#A7C1EA;" d="M260.422,401H84.45
				H57.934v4.906c-1.131-2.553-2.243-5.128-3.334-7.725c-8.733-20.776-16.193-42.948-22.217-66.254
				c-12.048-46.612-18.349-97.761-17.586-151.346c0.763-53.585,8.517-104.534,21.887-150.785
				c3.342-11.563,7.036-22.832,11.059-33.775V-1h438.83v-4.922c0.969,2.723,1.918,5.467,2.845,8.23
				c3.71,11.053,7.081,22.423,10.093,34.076c12.048,46.612,18.349,97.761,17.586,151.346
				c-0.763,53.585-8.517,104.534-21.887,150.784c-6.685,23.125-14.774,45.076-24.094,65.595V401H260.422z"/>
			<path style="clip-path:url(#SVGID_00000111908399877673329520000002322663305561039018_);fill:#A8C2EB;" d="M260.507,401H87.242
				H61.134v1.494c-1.114-2.513-2.208-5.049-3.283-7.606c-8.598-20.456-15.944-42.287-21.876-65.235
				c-11.863-45.895-18.067-96.257-17.316-149.018c0.751-52.761,8.386-102.926,21.55-148.465c3.291-11.385,6.928-22.48,10.889-33.255
				V-1h432.079v-1.997c0.955,2.681,1.889,5.383,2.802,8.103c3.653,10.883,6.972,22.078,9.938,33.552
				c11.863,45.895,18.067,96.257,17.316,149.018c-0.751,52.761-8.386,102.926-21.55,148.465
				c-6.582,22.77-14.546,44.383-23.724,64.585c-0.573,1.263-1.152,2.52-1.735,3.772V401H260.507z"/>
			<path style="clip-path:url(#SVGID_00000111908399877673329520000002322663305561039018_);fill:#A9C3EB;" d="M260.592,401H90.034
				H67.679v5.44c-2.268-4.861-4.461-9.81-6.577-14.844c-8.464-20.136-15.695-41.626-21.534-64.215
				c-11.677-45.178-17.784-94.753-17.045-146.69S30.779,79.373,43.737,34.546c3.24-11.207,6.819-22.129,10.718-32.736
				c0.975-2.652,1.97-5.283,2.984-7.895V-1h419.465v-6.932c1.959,5.199,3.839,10.479,5.637,15.836
				c3.596,10.713,6.863,21.733,9.782,33.027c11.677,45.178,17.785,94.753,17.045,146.69c-0.739,51.936-8.255,101.317-21.214,146.145
				c-6.479,22.414-14.319,43.689-23.353,63.576c-1.129,2.486-2.277,4.95-3.443,7.392V401H260.592z"/>
			<path style="clip-path:url(#SVGID_00000111908399877673329520000002322663305561039018_);fill:#AAC4EB;" d="M260.677,401H92.826
				h-22v1.912c-2.232-4.784-4.39-9.655-6.472-14.609c-8.33-19.817-15.446-40.965-21.192-63.196
				C31.67,280.646,25.66,231.858,26.387,180.746c0.728-51.112,8.124-99.709,20.877-143.825c3.188-11.029,6.711-21.778,10.548-32.216
				c0.959-2.61,1.938-5.2,2.936-7.77V-1h412.806v-3.883c1.928,5.117,3.778,10.313,5.548,15.584
				c3.539,10.543,6.754,21.388,9.627,32.503c11.492,44.461,17.502,93.249,16.775,144.361c-0.728,51.112-8.124,99.709-20.877,143.825
				c-6.376,22.058-14.092,42.996-22.982,62.567c-1.111,2.446-2.241,4.871-3.389,7.275V401H260.677z"/>
			<path style="clip-path:url(#SVGID_00000111908399877673329520000002322663305561039018_);fill:#ABC6EB;" d="M260.762,401H95.619
				H77.321v5.378c-1.134-2.31-2.25-4.642-3.347-6.995c-2.196-4.707-4.319-9.499-6.368-14.373
				c-8.195-19.497-15.197-40.305-20.85-62.177c-11.306-43.744-17.22-91.745-16.504-142.033c0.716-50.288,7.993-98.101,20.54-141.506
				c3.137-10.851,6.603-21.427,10.378-31.696c1.888-5.135,3.853-10.193,5.892-15.171V-1h403.145v-0.834
				c1.897,5.034,3.717,10.147,5.458,15.333c3.481,10.373,6.645,21.043,9.472,31.979c11.307,43.744,17.22,91.745,16.504,142.033
				c-0.716,50.288-7.993,98.101-20.54,141.505c-6.274,21.702-13.865,42.302-22.612,61.558c-2.187,4.814-4.446,9.544-6.775,14.186
				V401H260.762z"/>
			<path style="clip-path:url(#SVGID_00000111908399877673329520000002322663305561039018_);fill:#ACC7EB;" d="M260.847,401H98.411
				H80.413v1.735c-1.115-2.272-2.213-4.566-3.292-6.88c-2.16-4.629-4.248-9.343-6.264-14.137
				c-8.061-19.177-14.948-39.644-20.508-61.157c-11.121-43.027-16.938-90.241-16.233-139.704
				c0.704-49.463,7.862-96.493,20.203-139.186c3.085-10.673,6.495-21.075,10.208-31.177c1.857-5.051,3.789-10.026,5.796-14.923V-1
				h393.68v-5.154c0.971,2.437,1.923,4.894,2.856,7.369c1.866,4.952,3.656,9.98,5.369,15.082
				c3.424,10.203,6.536,20.698,9.316,31.455c11.121,43.027,16.938,90.241,16.234,139.704s-7.862,96.493-20.203,139.186
				c-6.171,21.346-13.637,41.609-22.241,60.549c-2.151,4.735-4.373,9.387-6.664,13.953V401H260.847z"/>
			<path style="clip-path:url(#SVGID_00000111908399877673329520000002322663305561039018_);fill:#ADC8EC;" d="M260.932,401H101.203
				H86.846v4.731c-4.522-8.765-8.774-17.877-12.737-27.306c-7.927-18.858-14.699-38.983-20.167-60.138
				c-10.936-42.31-16.655-88.737-15.963-137.376c0.692-48.639,7.731-94.885,19.867-136.866c3.034-10.495,6.386-20.724,10.038-30.657
				c1.826-4.967,3.726-9.859,5.699-14.674V-1h387.119v-1.983c0.954,2.396,1.891,4.812,2.808,7.247
				c1.835,4.869,3.595,9.814,5.279,14.83c3.367,10.033,6.427,20.353,9.161,30.931c10.936,42.31,16.655,88.737,15.963,137.376
				c-0.692,48.639-7.731,94.885-19.867,136.866c-6.068,20.991-13.41,40.915-21.87,59.54c-2.115,4.656-4.3,9.231-6.552,13.721
				c-1.126,2.245-2.269,4.469-3.429,6.671V401H260.932z"/>
			<path style="clip-path:url(#SVGID_00000111908399877673329520000002322663305561039018_);fill:#AFC9EC;" d="M261.017,401H103.995
				H89.882v0.975c-4.445-8.617-8.625-17.574-12.521-26.843c-7.792-18.538-14.45-38.322-19.825-59.119
				c-10.75-41.593-16.373-87.233-15.692-135.048c0.681-47.814,7.6-93.276,19.53-134.546c2.983-10.317,6.278-20.373,9.868-30.137
				c1.795-4.882,3.663-9.692,5.603-14.425c0.97-2.367,1.957-4.714,2.962-7.042V-1h374.727v-5.821
				c7.792,18.538,14.45,38.322,19.825,59.119c10.75,41.593,16.373,87.233,15.692,135.048c-0.681,47.814-7.6,93.276-19.53,134.546
				c-5.965,20.635-13.183,40.222-21.5,58.53c-4.159,9.154-8.592,17.989-13.28,26.476V401H261.017z"/>
			<path style="clip-path:url(#SVGID_00000111908399877673329520000002322663305561039018_);fill:#B0CAEC;" d="M261.102,401H106.788
				H96.242v3.508c-1.124-2.075-2.233-4.171-3.325-6.288c-4.369-8.468-8.477-17.271-12.306-26.38
				c-7.658-18.219-14.2-37.662-19.483-58.099c-10.565-40.875-16.091-85.729-15.422-132.719S53.176,89.352,64.9,48.794
				c2.931-10.139,6.17-20.022,9.698-29.618c1.764-4.798,3.6-9.525,5.506-14.177c0.953-2.326,1.924-4.633,2.911-6.921V-1h368.266
				v-2.528c7.658,18.218,14.201,37.662,19.483,58.099c10.565,40.875,16.091,85.729,15.422,132.719
				c-0.669,46.99-7.469,91.668-19.193,132.226c-5.862,20.279-12.955,39.528-21.129,57.521c-4.087,8.996-8.443,17.679-13.051,26.019
				V401H261.102z"/>
			<path style="clip-path:url(#SVGID_00000111908399877673329520000002322663305561039018_);fill:#B1CCEC;" d="M261.187,401H109.58
				h-6.999v5.693c-2.272-3.992-4.482-8.069-6.628-12.229c-4.292-8.319-8.328-16.968-12.09-25.918
				c-7.524-17.899-13.951-37.001-19.141-57.08c-10.38-40.158-15.808-84.225-15.151-130.391c0.657-46.166,7.338-90.06,18.857-129.907
				c5.759-19.923,12.728-38.835,20.758-56.512V-1h355.972v-5.89c0.974,2.199,1.932,4.418,2.872,6.655
				c7.524,17.899,13.951,37.001,19.141,57.08c10.38,40.158,15.808,84.225,15.151,130.391c-0.657,46.166-7.338,90.06-18.857,129.907
				c-5.759,19.923-12.728,38.835-20.758,56.512c-4.015,8.839-8.295,17.369-12.823,25.563c-1.132,2.049-2.279,4.076-3.441,6.082V401
				H261.187z"/>
			<path style="clip-path:url(#SVGID_00000111908399877673329520000002322663305561039018_);fill:#B2CDEC;" d="M261.272,401H112.372
				h-6.874v1.719c-2.231-3.92-4.402-7.925-6.51-12.011c-4.215-8.171-8.179-16.665-11.874-25.455
				c-7.389-17.579-13.702-36.34-18.799-56.061c-10.194-39.441-15.526-82.721-14.881-128.062s7.207-88.452,18.52-127.587
				c5.656-19.568,12.501-38.141,20.387-55.503V-1h349.615v-2.479c0.957,2.16,1.898,4.339,2.821,6.536
				c7.389,17.579,13.702,36.34,18.799,56.061c10.194,39.441,15.526,82.721,14.881,128.062c-0.645,45.341-7.207,88.452-18.52,127.587
				c-5.656,19.568-12.501,38.141-20.387,55.503c-3.943,8.681-8.147,17.059-12.594,25.107c-2.223,4.024-4.507,7.965-6.849,11.82V401
				H261.272z"/>
			<path style="clip-path:url(#SVGID_00000111908399877673329520000002322663305561039018_);fill:#B3CEED;" d="M261.357,401H115.164
				h-3.418v3.457c-1.125-1.883-2.235-3.787-3.331-5.711c-2.191-3.849-4.322-7.781-6.391-11.792
				c-4.139-8.022-8.031-16.362-11.658-24.992c-7.255-17.26-13.453-35.68-18.458-55.042c-10.009-38.724-15.244-81.217-14.61-125.734
				c0.634-44.517,7.076-86.844,18.183-125.267c5.554-19.212,12.273-37.448,20.017-54.494c0.968-2.131,1.952-4.243,2.951-6.336V-1
				h337.44v-5.374c1.944,4.166,3.823,8.409,5.637,12.724c7.255,17.26,13.453,35.679,18.458,55.042
				c10.009,38.724,15.244,81.217,14.61,125.734c-0.634,44.517-7.076,86.844-18.183,125.267
				c-5.554,19.212-12.274,37.448-20.017,54.494c-3.872,8.523-7.999,16.749-12.365,24.65c-2.183,3.951-4.425,7.82-6.724,11.605V401
				H261.357z"/>
			<path style="clip-path:url(#SVGID_00000111908399877673329520000002322663305561039018_);fill:#B4CFED;" d="M261.442,401H117.957
				v4.858c-36.243-57.794-58.038-137.232-56.795-224.617c0.622-43.693,6.945-85.235,17.846-122.947
				c5.451-18.856,12.046-36.754,19.646-53.485c1.9-4.183,3.863-8.292,5.886-12.326V-1h328.201v-1.845
				c1.908,4.089,3.753,8.253,5.533,12.488c7.121,16.94,13.204,35.019,18.116,54.022c9.824,38.007,14.961,79.713,14.34,123.406
				c-0.622,43.693-6.945,85.235-17.846,122.947c-5.451,18.856-12.046,36.754-19.646,53.485c-3.8,8.365-7.851,16.439-12.136,24.194
				c-2.142,3.878-4.343,7.675-6.6,11.391c-1.128,1.858-2.271,3.694-3.427,5.51V401H261.442z"/>
			<path style="clip-path:url(#SVGID_00000111908399877673329520000002322663305561039018_);fill:#B5D0ED;" d="M261.527,401H120.749
				v0.675c-35.56-56.703-56.944-134.643-55.723-220.379c0.61-42.868,6.814-83.627,17.51-120.628
				c5.348-18.5,11.819-36.061,19.275-52.476c1.864-4.104,3.79-8.136,5.775-12.093V-1h319.155v-4.28
				c0.966,1.969,1.918,3.957,2.853,5.963c1.872,4.012,3.682,8.097,5.428,12.253c6.986,16.62,12.955,34.358,17.774,53.003
				c9.638,37.29,14.679,78.209,14.069,121.077c-1.22,85.736-24.814,163.036-61.973,218.704V401H261.527z"/>
			<path style="clip-path:url(#SVGID_00000111908399877673329520000002322663305561039018_);fill:#B6D1ED;" d="M261.612,401h-76.363
				h-55.008v6.672c-2.286-3.31-4.52-6.704-6.7-10.18C88.665,341.879,67.693,265.438,68.89,181.351
				c0.599-42.044,6.683-82.019,17.173-118.308c5.245-18.144,11.592-35.367,18.905-51.466c1.828-4.025,3.717-7.979,5.664-11.861
				c0.974-1.941,1.962-3.863,2.964-5.766V-1h307.166v-6.375c3.909,7.577,7.584,15.453,11.01,23.604
				c6.852,16.301,12.706,33.697,17.432,51.984c9.453,36.573,14.397,76.705,13.798,118.749
				c-1.197,84.088-24.337,159.901-60.781,214.498V401H261.612z"/>
			<path style="clip-path:url(#SVGID_00000111908399877673329520000002322663305561039018_);fill:#B7D2ED;" d="M261.697,401h-74.865
				h-53.929v2.289c-2.242-3.245-4.432-6.573-6.569-9.98c-34.192-54.522-54.753-129.464-53.58-211.903
				c0.587-41.219,6.552-80.411,16.836-115.988c5.142-17.789,11.364-34.674,18.534-50.457c3.585-7.892,7.407-15.508,11.449-22.824V-1
				h298.154v-2.62c3.832,7.428,7.436,15.15,10.794,23.141c6.717,15.981,12.457,33.037,17.09,50.964
				c9.268,35.856,14.115,75.201,13.528,116.42c-1.173,82.439-23.86,156.765-59.59,210.292c-2.233,3.345-4.517,6.61-6.85,9.79V401
				H261.697z"/>
			<path style="clip-path:url(#SVGID_00000111908399877673329520000002322663305561039018_);fill:#B8D4EE;" d="M261.781,401h-73.368
				h-49.518v2.616c-1.123-1.549-2.234-3.119-3.333-4.709c-2.197-3.18-4.343-6.441-6.437-9.781
				c-33.508-53.432-53.658-126.875-52.508-207.665c0.575-40.395,6.421-78.802,16.499-113.668
				c5.039-17.433,11.137-33.98,18.163-49.448c3.513-7.734,7.258-15.198,11.22-22.368V-1h289.332v-4.27
				c0.967,1.784,1.92,3.585,2.859,5.405c3.755,7.28,7.287,14.847,10.578,22.678c6.583,15.662,12.207,32.376,16.749,49.945
				c9.082,35.139,13.832,73.697,13.257,114.092c-1.15,80.79-23.383,153.63-58.398,206.086c-2.189,3.279-4.427,6.477-6.713,9.594V401
				H261.781z"/>
			<path style="clip-path:url(#SVGID_00000111908399877673329520000002322663305561039018_);fill:#B9D5EE;" d="M261.866,401h-71.871
				h-45.171v2.628c-4.497-5.906-8.804-12.142-12.907-18.685c-32.824-52.341-52.563-124.286-51.437-203.427
				c0.563-39.571,6.29-77.194,16.163-111.349c4.937-17.077,10.91-33.287,17.793-48.439c3.441-7.576,7.11-14.888,10.991-21.911
				c0.97-1.756,1.953-3.494,2.95-5.213V-1h277.596v-5.591c1.947,3.421,3.842,6.916,5.681,10.482
				c3.679,7.131,7.138,14.544,10.363,22.215c6.449,15.342,11.958,31.715,16.407,48.926c8.897,34.421,13.55,72.193,12.987,111.764
				c-1.126,79.141-22.905,150.495-57.206,201.881c-4.288,6.423-8.771,12.535-13.434,18.31V401H261.866z"/>
			<path style="clip-path:url(#SVGID_00000111908399877673329520000002322663305561039018_);fill:#BAD6EE;" d="M261.951,401h-70.373
				H154.09v6.484c-2.292-2.727-4.54-5.537-6.742-8.428c-4.403-5.783-8.621-11.889-12.638-18.296
				c-32.141-51.251-51.468-121.697-50.365-199.189c0.551-38.746,6.159-75.586,15.826-109.029
				c4.834-16.721,10.683-32.594,17.422-47.43c3.37-7.418,6.962-14.577,10.762-21.455c1.9-3.439,3.851-6.807,5.853-10.101V-1h268.849
				v-1.617c1.907,3.35,3.762,6.772,5.563,10.264c3.602,6.983,6.989,14.241,10.147,21.752c6.314,15.022,11.709,31.054,16.065,47.907
				c8.712,33.704,13.268,70.689,12.716,109.435c-1.103,77.492-22.428,147.359-56.014,197.675
				c-4.198,6.289-8.588,12.273-13.154,17.928V401H261.951z"/>
			<path style="clip-path:url(#SVGID_00000111908399877673329520000002322663305561039018_);fill:#BBD7EE;" d="M262.036,401H193.16
				h-36.69v1.732c-2.244-2.669-4.444-5.419-6.598-8.249c-4.309-5.66-8.437-11.636-12.369-17.906
				c-31.457-50.16-50.373-119.107-49.294-194.951c0.54-37.922,6.028-73.978,15.489-106.709c4.731-16.366,10.455-31.9,17.051-46.421
				c3.298-7.26,6.814-14.267,10.533-20.998c1.859-3.365,3.769-6.662,5.728-9.886V-1h260.291v-2.508
				c0.958,1.604,1.904,3.226,2.837,4.865c1.866,3.279,3.682,6.628,5.444,10.045c3.526,6.834,6.841,13.938,9.931,21.289
				c6.18,14.703,11.46,30.394,15.723,46.887c8.526,32.987,12.985,69.185,12.446,107.107c-1.08,75.844-21.951,144.224-54.823,193.469
				c-4.109,6.156-8.405,12.012-12.874,17.547c-2.234,2.768-4.512,5.454-6.83,8.058V401H262.036z"/>
			<path style="clip-path:url(#SVGID_00000111908399877673329520000002322663305561039018_);fill:#BCD8EE;" d="M262.121,401h-67.379
				h-29.182v4.569c-9.113-9.789-17.572-20.907-25.266-33.175c-30.773-49.07-49.278-116.518-48.222-190.713
				c1.056-74.195,21.474-141.089,53.631-189.263V-1h245.894v-3.082c30.773,49.07,49.278,116.518,48.222,190.713
				c-1.056,74.195-21.474,141.089-53.631,189.263c-4.02,6.022-8.223,11.751-12.594,17.165c-2.186,2.707-4.414,5.336-6.682,7.883
				c-1.134,1.273-2.278,2.527-3.432,3.759V401H262.121z"/>
			<path style="clip-path:url(#SVGID_00000111908399877673329520000002322663305561039018_);fill:#BDD9EF;" d="M262.206,401h-65.881
				h-21.733v6.58c-2.305-2.227-4.573-4.539-6.801-6.932c-8.91-9.571-17.182-20.443-24.704-32.438
				c-30.089-47.98-48.183-113.929-47.15-186.475c1.033-72.546,20.997-137.954,52.439-185.057V-1h237.574v-3.344
				c0.964,1.464,1.915,2.946,2.856,4.445c30.089,47.98,48.183,113.929,47.15,186.475c-1.033,72.546-20.996,137.953-52.439,185.057
				c-7.861,11.776-16.439,22.408-25.618,31.721V401H262.206z"/>
			<path style="clip-path:url(#SVGID_00000111908399877673329520000002322663305561039018_);fill:#BEDAEF;" d="M262.292,401h-64.384
				h-21.239v1.502c-2.253-2.177-4.469-4.436-6.646-6.774c-8.708-9.354-16.792-19.978-24.143-31.701
				c-29.405-46.889-47.088-111.339-46.079-182.237S120.32,46.972,151.048,0.939c1.921-2.877,3.885-5.684,5.891-8.419V-1h223.425
				v-3.299c1.928,2.791,3.811,5.653,5.649,8.583c29.405,46.889,47.088,111.339,46.079,182.237
				c-1.009,70.897-20.519,134.818-51.247,180.851c-7.682,11.508-16.065,21.899-25.035,31.001c-2.243,2.275-4.522,4.47-6.836,6.582
				V401H262.292z"/>
			<path style="clip-path:url(#SVGID_00000111908399877673329520000002322663305561039018_);fill:#BFDBEF;" d="M262.376,401H199.49
				h-14.035v2.559c-4.544-3.926-8.949-8.184-13.201-12.751c-8.505-9.136-16.401-19.514-23.581-30.963
				c-28.721-45.799-45.993-108.75-45.007-177.999C104.65,112.597,123.707,50.163,153.72,5.2c1.876-2.81,3.794-5.552,5.754-8.223V-1
				h212.453v-6.882c3.935,5.168,7.704,10.624,11.294,16.349c28.721,45.799,45.993,108.75,45.007,177.999
				c-0.986,69.249-20.042,131.683-50.055,176.646c-7.503,11.241-15.691,21.389-24.453,30.28c-4.381,4.445-8.905,8.576-13.559,12.371
				V401H262.376z"/>
			<path style="clip-path:url(#SVGID_00000111908399877673329520000002322663305561039018_);fill:#C0DCEF;" d="M262.461,401h-61.39
				h-6.948v2.839c-2.284-1.752-4.536-3.587-6.754-5.503c-4.436-3.832-8.736-7.989-12.887-12.448
				c-8.303-8.919-16.011-19.049-23.02-30.226c-28.037-44.708-44.898-106.161-43.935-173.761
				c0.962-67.6,19.565-128.548,48.864-172.44c3.662-5.487,7.492-10.707,11.475-15.64V-1h201.537v-2.31
				c3.841,5.045,7.52,10.371,11.025,15.96c28.037,44.708,44.898,106.161,43.936,173.761c-0.962,67.6-19.565,128.548-48.864,172.44
				c-7.325,10.973-15.318,20.88-23.871,29.559c-4.276,4.339-8.693,8.371-13.236,12.076c-2.272,1.852-4.575,3.623-6.908,5.309V401
				H262.461z"/>
			<path style="clip-path:url(#SVGID_00000111908399877673329520000002322663305561039018_);fill:#C1DEEF;" d="M262.546,401h-59.892
				v2.361c-18.318-12.349-34.721-30.074-48.398-51.883c-27.354-43.618-43.803-103.572-42.864-169.523
				c0.939-65.951,19.088-125.412,47.672-168.234c3.573-5.353,7.309-10.445,11.195-15.258V-1h190.884v-4.911
				c1.951,2.321,3.864,4.712,5.738,7.173c3.747,4.922,7.337,10.119,10.756,15.571c27.354,43.618,43.803,103.572,42.864,169.523
				c-0.939,65.951-19.088,125.412-47.672,168.234c-14.292,21.411-31.193,38.662-49.855,50.484V401H262.546z"/>
			<path style="clip-path:url(#SVGID_00000111908399877673329520000002322663305561039018_);fill:#C1DFEF;" d="M262.632,401h-30.302
				h-14.36v4.908c-4.686-2.335-9.268-5.017-13.733-8.027c-17.86-12.04-33.853-29.322-47.188-50.585
				c-26.67-42.527-42.708-100.982-41.792-165.285s18.611-122.277,46.48-164.028c3.484-5.219,7.126-10.184,10.915-14.877
				c1.894-2.346,3.825-4.624,5.791-6.832V-1h174.505v-6.735c7.898,8.483,15.229,18.12,21.897,28.752
				c26.67,42.527,42.708,100.982,41.792,165.285c-0.915,64.302-18.611,122.277-46.48,164.028
				c-13.935,20.876-30.413,37.695-48.609,49.222c-4.549,2.882-9.205,5.432-13.956,7.633V401H262.632z"/>
			<path style="clip-path:url(#SVGID_00000111908399877673329520000002322663305561039018_);fill:#C2E0F0;" d="M262.716,401h-29.525
				v5.013c-9.515-3.158-18.671-7.747-27.373-13.613c-17.403-11.731-32.985-28.57-45.978-49.288
				c-25.986-41.437-41.613-98.393-40.721-161.047c0.892-62.654,18.133-119.142,45.288-159.822
				c6.789-10.17,14.197-19.352,22.124-27.396V-1h164.184v-1.815c7.695,8.266,14.839,17.655,21.336,28.014
				c25.986,41.437,41.613,98.393,40.721,161.046c-0.892,62.654-18.133,119.142-45.288,159.822
				c-13.577,20.34-29.633,36.729-47.363,47.96c-8.865,5.615-18.148,9.942-27.749,12.828V401H262.716z"/>
			<path style="clip-path:url(#SVGID_00000111908399877673329520000002322663305561039018_);fill:#C3E1F0;" d="M262.801,405.073
				c-78.956-1.124-141.555-100.943-139.818-222.953c0.868-61.005,17.656-116.006,44.096-155.616
				c6.61-9.903,13.823-18.843,21.542-26.675c1.93-1.958,3.891-3.847,5.882-5.664V-1h148.262v-2.724
				c1.939,1.873,3.846,3.817,5.719,5.829c7.493,8.048,14.449,17.191,20.774,27.277c25.302,40.346,40.518,95.804,39.649,156.808
				C407.172,308.2,341.757,406.197,262.801,405.073z"/>
			<path style="clip-path:url(#SVGID_00000111908399877673329520000002322663305561039018_);fill:#C4E2F0;" d="M262.886,399.103
				c-76.822-1.094-137.729-98.215-136.039-216.927c0.845-59.356,17.179-112.871,42.905-151.411
				c6.431-9.635,13.45-18.334,20.96-25.954c3.755-3.81,7.633-7.35,11.622-10.603V-1h132.605v-2.904
				c3.895,3.365,7.67,7.014,11.315,10.93c7.29,7.831,14.058,16.726,20.213,26.54c24.618,39.256,39.422,93.214,38.577,152.57
				C403.355,304.848,339.708,400.196,262.886,399.103z"/>
			<path style="clip-path:url(#SVGID_00000111908399877673329520000002322663305561039018_);fill:#C5E3F0;" d="M262.971,393.132
				c-74.688-1.063-133.903-95.487-132.26-210.901c0.821-57.707,16.702-109.736,41.713-147.205
				c6.253-9.367,13.076-17.825,20.378-25.233c3.651-3.704,7.421-7.146,11.299-10.309c1.939-1.581,3.905-3.093,5.897-4.532V-1
				h111.329v-6.649c16.029,10.805,30.381,26.314,42.349,45.397c23.934,38.166,38.327,90.625,37.506,148.332
				C399.538,301.495,337.659,394.195,262.971,393.132z"/>
			<path style="clip-path:url(#SVGID_00000111908399877673329520000002322663305561039018_);fill:#C6E4F0;" d="M263.056,387.161
				c-72.554-1.033-130.077-92.759-128.481-204.875c0.798-56.058,16.225-106.6,40.521-142.999
				c12.148-18.199,26.514-32.862,42.377-42.911V-1h102.271v-1.169c15.571,10.496,29.513,25.563,41.138,44.1
				c23.25,37.075,37.232,88.036,36.434,144.094C395.721,298.142,335.611,388.194,263.056,387.161z"/>
			<path style="clip-path:url(#SVGID_00000111908399877673329520000002322663305561039018_);fill:#C7E5F1;" d="M263.141,381.19
				c-70.42-1.002-126.251-90.03-124.702-198.85c0.774-54.41,15.747-103.465,39.329-138.793
				c11.791-17.664,25.734-31.896,41.131-41.649c3.849-2.438,7.789-4.597,11.809-6.459V-1h75.833v-2.481
				c3.965,1.976,7.842,4.246,11.621,6.792c15.113,10.188,28.645,24.811,39.929,42.803c22.567,35.985,36.137,85.446,35.363,139.856
				C391.904,294.79,333.562,382.193,263.141,381.19z"/>
			
				<ellipse transform="matrix(0.0142 -0.9999 0.9999 0.0142 78.0238 447.4538)" style="clip-path:url(#SVGID_00000111908399877673329520000002322663305561039018_);fill:#C8E6F1;" cx="265.946" cy="184.156" rx="191.083" ry="123.656"/>
			
				<ellipse transform="matrix(0.0142 -0.9999 0.9999 0.0142 78.0238 447.4538)" style="clip-path:url(#SVGID_00000111908399877673329520000002322663305561039018_);fill:#C9E7F1;" cx="265.946" cy="184.156" rx="185.112" ry="119.791"/>
			
				<ellipse transform="matrix(0.0142 -0.9999 0.9999 0.0142 78.0238 447.4537)" style="clip-path:url(#SVGID_00000111908399877673329520000002322663305561039018_);fill:#CAE8F1;" cx="265.946" cy="184.156" rx="179.141" ry="115.927"/>
			
				<ellipse transform="matrix(0.0142 -0.9999 0.9999 0.0142 78.0238 447.4538)" style="clip-path:url(#SVGID_00000111908399877673329520000002322663305561039018_);fill:#CBE9F1;" cx="265.946" cy="184.156" rx="173.169" ry="112.063"/>
			
				<ellipse transform="matrix(0.0142 -0.9999 0.9999 0.0142 78.024 447.4539)" style="clip-path:url(#SVGID_00000111908399877673329520000002322663305561039018_);fill:#CBEAF1;" cx="265.946" cy="184.156" rx="167.198" ry="108.199"/>
			
				<ellipse transform="matrix(0.0142 -0.9999 0.9999 0.0142 78.0239 447.4538)" style="clip-path:url(#SVGID_00000111908399877673329520000002322663305561039018_);fill:#CCEBF2;" cx="265.946" cy="184.156" rx="161.227" ry="104.335"/>
			
				<ellipse transform="matrix(0.0142 -0.9999 0.9999 0.0142 78.0238 447.4538)" style="clip-path:url(#SVGID_00000111908399877673329520000002322663305561039018_);fill:#CDECF2;" cx="265.946" cy="184.156" rx="155.255" ry="100.47"/>
			
				<ellipse transform="matrix(0.0142 -0.9999 0.9999 0.0142 78.0237 447.4537)" style="clip-path:url(#SVGID_00000111908399877673329520000002322663305561039018_);fill:#CEEDF2;" cx="265.946" cy="184.156" rx="149.284" ry="96.606"/>
			
				<ellipse transform="matrix(0.0142 -0.9999 0.9999 0.0142 78.0237 447.4537)" style="clip-path:url(#SVGID_00000111908399877673329520000002322663305561039018_);fill:#CFEEF2;" cx="265.946" cy="184.156" rx="143.312" ry="92.742"/>
			
				<ellipse transform="matrix(0.0142 -0.9999 0.9999 0.0142 78.0238 447.4537)" style="clip-path:url(#SVGID_00000111908399877673329520000002322663305561039018_);fill:#D0EFF2;" cx="265.946" cy="184.156" rx="137.341" ry="88.878"/>
			
				<ellipse transform="matrix(0.0142 -0.9999 0.9999 0.0142 78.0239 447.4539)" style="clip-path:url(#SVGID_00000111908399877673329520000002322663305561039018_);fill:#D0F0F2;" cx="265.946" cy="184.156" rx="131.37" ry="85.013"/>
			
				<ellipse transform="matrix(0.0142 -0.9999 0.9999 0.0142 78.0237 447.4537)" style="clip-path:url(#SVGID_00000111908399877673329520000002322663305561039018_);fill:#D1F1F3;" cx="265.946" cy="184.156" rx="125.398" ry="81.149"/>
			
				<ellipse transform="matrix(0.0142 -0.9999 0.9999 0.0142 78.0237 447.4537)" style="clip-path:url(#SVGID_00000111908399877673329520000002322663305561039018_);fill:#D2F1F3;" cx="265.946" cy="184.156" rx="119.427" ry="77.285"/>
			
				<ellipse transform="matrix(0.0142 -0.9999 0.9999 0.0142 78.0238 447.4538)" style="clip-path:url(#SVGID_00000111908399877673329520000002322663305561039018_);fill:#D3F2F3;" cx="265.946" cy="184.156" rx="113.456" ry="73.421"/>
			
				<ellipse transform="matrix(0.0142 -0.9999 0.9999 0.0142 78.024 447.4539)" style="clip-path:url(#SVGID_00000111908399877673329520000002322663305561039018_);fill:#D4F3F3;" cx="265.946" cy="184.156" rx="107.484" ry="69.556"/>
			
				<ellipse transform="matrix(0.0142 -0.9999 0.9999 0.0142 78.0239 447.4538)" style="clip-path:url(#SVGID_00000111908399877673329520000002322663305561039018_);fill:#D4F4F3;" cx="265.946" cy="184.156" rx="101.513" ry="65.692"/>
			
				<ellipse transform="matrix(0.0142 -0.9999 0.9999 0.0142 78.0239 447.4538)" style="clip-path:url(#SVGID_00000111908399877673329520000002322663305561039018_);fill:#D5F5F3;" cx="265.946" cy="184.156" rx="95.542" ry="61.828"/>
			
				<ellipse transform="matrix(0.0142 -0.9999 0.9999 0.0142 78.024 447.4539)" style="clip-path:url(#SVGID_00000111908399877673329520000002322663305561039018_);fill:#D6F6F3;" cx="265.946" cy="184.156" rx="89.57" ry="57.964"/>
			
				<ellipse transform="matrix(0.0142 -0.9999 0.9999 0.0142 78.0239 447.4538)" style="clip-path:url(#SVGID_00000111908399877673329520000002322663305561039018_);fill:#D7F7F4;" cx="265.946" cy="184.156" rx="83.599" ry="54.099"/>
			
				<ellipse transform="matrix(0.0142 -0.9999 0.9999 0.0142 78.0233 447.4534)" style="clip-path:url(#SVGID_00000111908399877673329520000002322663305561039018_);fill:#D7F7F4;" cx="265.946" cy="184.156" rx="77.628" ry="50.235"/>
			
				<ellipse transform="matrix(0.0142 -0.9999 0.9999 0.0142 78.0236 447.4537)" style="clip-path:url(#SVGID_00000111908399877673329520000002322663305561039018_);fill:#D8F8F4;" cx="265.946" cy="184.156" rx="71.656" ry="46.371"/>
			
				<ellipse transform="matrix(0.0142 -0.9999 0.9999 0.0142 78.0238 447.4538)" style="clip-path:url(#SVGID_00000111908399877673329520000002322663305561039018_);fill:#D9F9F4;" cx="265.946" cy="184.156" rx="65.685" ry="42.507"/>
			
				<ellipse transform="matrix(0.0142 -0.9999 0.9999 0.0142 78.0242 447.4541)" style="clip-path:url(#SVGID_00000111908399877673329520000002322663305561039018_);fill:#D9FAF4;" cx="265.946" cy="184.156" rx="59.714" ry="38.642"/>
			
				<ellipse transform="matrix(0.0142 -0.9999 0.9999 0.0142 78.0233 447.4534)" style="clip-path:url(#SVGID_00000111908399877673329520000002322663305561039018_);fill:#DAFAF4;" cx="265.946" cy="184.156" rx="53.742" ry="34.778"/>
			
				<ellipse transform="matrix(0.0142 -0.9999 0.9999 0.0142 78.0238 447.4537)" style="clip-path:url(#SVGID_00000111908399877673329520000002322663305561039018_);fill:#DBFBF4;" cx="265.946" cy="184.156" rx="47.771" ry="30.914"/>
			
				<ellipse transform="matrix(0.0142 -0.9999 0.9999 0.0142 78.0239 447.4539)" style="clip-path:url(#SVGID_00000111908399877673329520000002322663305561039018_);fill:#DBFCF4;" cx="265.946" cy="184.156" rx="41.799" ry="27.05"/>
			
				<ellipse transform="matrix(0.0142 -0.9999 0.9999 0.0142 78.024 447.4539)" style="clip-path:url(#SVGID_00000111908399877673329520000002322663305561039018_);fill:#DCFCF5;" cx="265.946" cy="184.156" rx="35.828" ry="23.185"/>
			
				<ellipse transform="matrix(0.0142 -0.9999 0.9999 0.0142 78.0234 447.4535)" style="clip-path:url(#SVGID_00000111908399877673329520000002322663305561039018_);fill:#DCFDF5;" cx="265.946" cy="184.156" rx="29.857" ry="19.321"/>
			
				<ellipse transform="matrix(0.0142 -0.9999 0.9999 0.0142 78.0245 447.4543)" style="clip-path:url(#SVGID_00000111908399877673329520000002322663305561039018_);fill:#DDFEF5;" cx="265.946" cy="184.156" rx="23.885" ry="15.457"/>
			<path style="clip-path:url(#SVGID_00000111908399877673329520000002322663305561039018_);fill:#DDFEF5;" d="M265.691,202.068
				c-6.402-0.091-11.477-8.185-11.337-18.077c0.141-9.893,5.445-17.838,11.846-17.747c6.402,0.091,11.477,8.185,11.337,18.077
				C277.397,194.213,272.093,202.159,265.691,202.068z"/>
			<path style="clip-path:url(#SVGID_00000111908399877673329520000002322663305561039018_);fill:#DEFFF5;" d="M265.776,196.097
				c-4.268-0.061-7.651-5.456-7.558-12.051c0.094-6.595,3.63-11.892,7.898-11.831c4.268,0.061,7.652,5.456,7.558,12.051
				C273.58,190.861,270.044,196.158,265.776,196.097z"/>
			<path style="clip-path:url(#SVGID_00000111908399877673329520000002322663305561039018_);fill:#DEFFF5;" d="M265.861,190.126
				c-2.134-0.03-3.826-2.728-3.779-6.026c0.047-3.297,1.815-5.946,3.949-5.916c2.134,0.03,3.826,2.728,3.779,6.026
				C269.763,187.508,267.995,190.157,265.861,190.126z"/>
		</g>
	</g>
</g>
<g id="_lottery">
	<g>
		<path style="fill:#8AA7CF;" d="M393.734,370.55H156.266c0,0,0.011-0.011,0.022-0.033l13.238-23.081l19.963-34.81l20.229-35.287
			h130.563l41.346,72.117l12.084,21.061C393.723,370.539,393.734,370.55,393.734,370.55z"/>
		<path style="opacity:0.5;fill:#5B86BF;" d="M381.628,349.455C360.666,336.15,324.48,319.516,275,319.516
			c-48.859,0-84.545,15.38-105.474,27.919l19.963-34.81l20.229-35.287h130.563L381.628,349.455z"/>
		<path style="fill:#402624;" d="M237.782,310.136c-25.977-14.659-47.622,4.448-55.268,14.643l21.443-37.375l12.149,1.814
			L237.782,310.136z"/>
		<path style="fill:#402624;" d="M312.176,310.136c25.977-14.659,47.622,4.448,55.268,14.643l-21.443-37.375l-12.149,1.814
			L312.176,310.136z"/>
		<circle style="fill:#DB7444;" cx="275" cy="190.85" r="130.941"/>
		
			<ellipse transform="matrix(0.7071 -0.7071 0.7071 0.7071 -54.406 250.3532)" style="fill:#D6496F;" cx="275" cy="190.85" rx="118.734" ry="118.734"/>
		<path style="fill:#AACAF7;" d="M303.743,75.622c14.368,3.574,28.292,9.911,41.008,19.142
			c12.716,9.231,23.055,20.507,30.904,33.061L275,190.85L303.743,75.622z"/>
		<path style="fill:#AACAF7;" d="M275,190.85l115.228,28.743c-3.574,14.368-9.911,28.292-19.142,41.008
			c-9.231,12.716-20.507,23.055-33.061,30.904L275,190.85z"/>
		<path style="fill:#FFD680;" d="M390.228,219.593L275,190.85l100.655-63.026C392.729,155.097,398.014,188.373,390.228,219.593z"/>
		<path style="fill:#FFFFFF;" d="M178.913,121.1c9.23-12.716,20.507-23.055,33.061-30.904L275,190.85l-115.228-28.743
			C163.345,147.74,169.683,133.815,178.913,121.1z"/>
		<path style="fill:#C73D30;" d="M275,190.85L211.974,90.196c27.272-17.075,60.548-22.359,91.769-14.573L275,190.85z"/>
		<path style="fill:#AACAF7;" d="M174.345,253.876L275,190.85l-28.743,115.228c-14.368-3.574-28.292-9.911-41.008-19.142
			C192.533,277.706,182.194,266.43,174.345,253.876z"/>
		<path style="fill:#FFFFFF;" d="M246.257,306.079L275,190.85l63.026,100.655C310.753,308.58,277.477,313.864,246.257,306.079z"/>
		<path style="fill:#FFD680;" d="M159.772,162.108L275,190.85l-100.655,63.026C157.27,226.604,151.986,193.328,159.772,162.108z"/>
		
			<ellipse transform="matrix(0.7071 -0.7071 0.7071 0.7071 -54.406 250.3532)" style="opacity:0.11;fill:#FFFFFF;" cx="275" cy="190.85" rx="98.466" ry="98.466"/>
		
			<ellipse transform="matrix(0.1538 -0.9881 0.9881 0.1538 44.1329 433.233)" style="fill:#402624;" cx="275" cy="190.85" rx="28.743" ry="28.743"/>
		<path style="fill:#402624;" d="M296.355,67.537c-6.935-1.205-14.081-1.824-21.355-1.824c-7.274,0-14.42,0.62-21.355,1.824
			C194.713,77.665,149.863,129.03,149.863,190.85c0,69.106,56.031,125.137,125.137,125.137s125.137-56.031,125.137-125.137
			C400.137,129.03,355.287,77.665,296.355,67.537z M275,309.637c-65.609,0-118.787-53.178-118.787-118.787
			c0-59.142,43.213-108.191,99.794-117.267L275,122.2l18.993-48.616c56.581,9.075,99.794,58.125,99.794,117.267
			C393.787,256.46,340.609,309.637,275,309.637z"/>
		
			<ellipse transform="matrix(0.9089 -0.417 0.417 0.9089 -54.5332 132.0561)" style="fill:#DB7444;" cx="275" cy="190.85" rx="24.413" ry="24.413"/>
		<path style="fill:#FFBE3D;" d="M302.73,39.958L275,110.955l-27.642-70.763l-0.089-0.233c0.022-0.011,0.089-0.022,0.089-0.022
			c8.966-1.631,18.198-2.486,27.642-2.486s18.676,0.854,27.642,2.486C302.642,39.936,302.708,39.947,302.73,39.958z"/>
		<path style="opacity:0.5;fill:#FFCE6E;" d="M302.73,39.958c-1.969,6.613-15.735,25.714-27.864,25.525
			c-15.169-0.233-24.963-18.776-27.508-25.292l-0.089-0.233c0.022-0.011,0.089-0.022,0.089-0.022
			c8.966-1.631,18.198-2.486,27.642-2.486s18.676,0.854,27.642,2.486C302.642,39.936,302.708,39.947,302.73,39.958z"/>
		<g>
			<path style="fill:#FFFFFF;" d="M260.14,89.129l0.455,1.974l-6.629,1.529c-0.609,0.141-1.179,0.13-1.708-0.032
				c-0.529-0.163-0.978-0.458-1.345-0.891c-0.367-0.433-0.623-0.958-0.766-1.577c-0.233-1.012-0.158-1.861,0.227-2.545
				c0.384-0.684,1.048-1.135,1.991-1.353l0.458,1.987c-0.469,0.108-0.792,0.286-0.971,0.536c-0.178,0.248-0.218,0.585-0.12,1.01
				c0.087,0.377,0.286,0.648,0.596,0.813c0.311,0.164,0.705,0.19,1.183,0.08L260.14,89.129z"/>
			<path style="fill:#FFFFFF;" d="M254.596,99.809l-0.798-3.46l-2.125-0.202l-0.483-2.099l10.397,1.357l0.422,1.828l-8.749,5.792
				l-0.484-2.098L254.596,99.809z M255.519,96.513l0.553,2.395l3.307-2.03L255.519,96.513z"/>
			<path style="fill:#FFFFFF;" d="M258.357,110.564c-1.048,0.163-1.946-0.03-2.696-0.58c-0.75-0.549-1.255-1.385-1.514-2.508
				c-0.283-1.228-0.093-2.289,0.572-3.182c0.664-0.895,1.717-1.508,3.16-1.841l0.585-0.135c0.921-0.212,1.769-0.237,2.545-0.075
				c0.776,0.164,1.422,0.502,1.935,1.02c0.514,0.516,0.863,1.173,1.047,1.972c0.255,1.104,0.164,2.063-0.272,2.875
				c-0.436,0.811-1.177,1.393-2.223,1.745l-0.455-1.973c0.607-0.19,1.016-0.467,1.226-0.827c0.21-0.36,0.245-0.843,0.106-1.447
				c-0.152-0.658-0.501-1.097-1.047-1.314c-0.547-0.217-1.316-0.216-2.31,0.003l-0.724,0.167c-1.034,0.238-1.755,0.57-2.16,0.994
				c-0.406,0.424-0.531,0.972-0.375,1.647c0.141,0.609,0.385,1.033,0.732,1.269c0.348,0.236,0.818,0.309,1.412,0.218
				L258.357,110.564z"/>
			<path style="fill:#FFFFFF;" d="M259.999,114.708l-1.342-0.771l-2.735,0.631l-0.455-1.974l9.575-2.209l0.455,1.974l-4.34,1.001
				l1.391,0.593l3.712,1.714l0.56,2.428l-5.039-2.42l-4.514,4.726l-0.541-2.348L259.999,114.708z"/>
			<path style="fill:#FFFFFF;" d="M261.268,122.34l-3.374,0.778l-0.455-1.974l9.575-2.209l0.862,3.736
				c0.165,0.719,0.18,1.381,0.043,1.989c-0.138,0.606-0.414,1.113-0.831,1.518c-0.417,0.405-0.934,0.68-1.553,0.822
				c-0.939,0.216-1.752,0.064-2.441-0.452c-0.69-0.518-1.166-1.344-1.427-2.479L261.268,122.34z M262.866,121.972l0.407,1.763
				c0.12,0.521,0.334,0.891,0.643,1.108c0.309,0.217,0.69,0.272,1.147,0.168c0.469-0.108,0.816-0.333,1.042-0.676
				c0.226-0.343,0.287-0.759,0.184-1.249l-0.417-1.808L262.866,121.972z"/>
			<path style="fill:#FFFFFF;" d="M265.827,136.644c-0.943,0.218-1.808,0.241-2.595,0.072c-0.787-0.169-1.445-0.519-1.974-1.05
				c-0.529-0.531-0.886-1.199-1.071-2.001c-0.183-0.793-0.156-1.545,0.082-2.256c0.238-0.71,0.672-1.318,1.301-1.824
				c0.629-0.505,1.404-0.866,2.323-1.083l0.474-0.109c0.942-0.218,1.812-0.238,2.606-0.064c0.796,0.173,1.457,0.527,1.983,1.06
				c0.527,0.532,0.882,1.196,1.065,1.994c0.185,0.798,0.156,1.551-0.084,2.26c-0.241,0.709-0.68,1.317-1.319,1.822
				c-0.638,0.505-1.427,0.865-2.365,1.081L265.827,136.644z M265.8,134.545c1.004-0.231,1.726-0.587,2.165-1.067
				c0.439-0.479,0.582-1.053,0.427-1.72c-0.152-0.662-0.527-1.113-1.126-1.354c-0.599-0.242-1.395-0.249-2.392-0.024l-0.466,0.107
				c-0.978,0.226-1.695,0.581-2.151,1.065c-0.456,0.484-0.607,1.063-0.451,1.738c0.153,0.662,0.53,1.111,1.132,1.347
				c0.601,0.236,1.4,0.241,2.396,0.015L265.8,134.545z"/>
			<path style="fill:#FFFFFF;" d="M271.098,143.941l-0.676-2.933l-7.978,1.84l-0.455-1.974l7.977-1.84l-0.667-2.895l1.598-0.369
				l1.799,7.801L271.098,143.941z"/>
		</g>
		<g>
			<path style="fill:#402624;" d="M186.979,136.193c-0.692,0.166-1.331,0.072-1.912-0.277c-0.744-0.449-1.185-1.063-1.324-1.843
				c-0.14-0.78,0.052-1.604,0.574-2.471c0.332-0.551,0.757-0.984,1.276-1.3c0.518-0.315,1.07-0.472,1.657-0.468
				c0.586,0.004,1.148,0.169,1.688,0.494c0.555,0.334,0.964,0.77,1.229,1.308c0.265,0.538,0.359,1.139,0.285,1.803
				c-0.075,0.664-0.312,1.333-0.712,2.006l-0.373,0.618c-0.846,1.403-1.858,2.295-3.04,2.676c-1.18,0.382-2.426,0.214-3.738-0.503
				l-0.415-0.242l0.84-1.393l0.374,0.217C184.881,137.628,186.078,137.419,186.979,136.193z M186.248,134.885
				c0.27,0.163,0.543,0.233,0.822,0.211c0.279-0.021,0.527-0.1,0.745-0.236l0.415-0.688c0.341-0.567,0.499-1.071,0.471-1.513
				c-0.028-0.442-0.223-0.773-0.585-0.99c-0.336-0.202-0.704-0.215-1.104-0.039c-0.4,0.176-0.739,0.496-1.018,0.958
				c-0.276,0.458-0.399,0.898-0.367,1.32C185.66,134.33,185.866,134.655,186.248,134.885z"/>
			<path style="fill:#402624;" d="M195.6,141.23c-0.702,1.164-1.479,1.909-2.332,2.235c-0.854,0.326-1.745,0.21-2.672-0.349
				c-0.918-0.553-1.437-1.278-1.558-2.176c-0.121-0.897,0.152-1.915,0.821-3.051l0.934-1.549c0.708-1.175,1.49-1.921,2.344-2.236
				c0.854-0.315,1.74-0.197,2.658,0.356c0.917,0.553,1.437,1.277,1.56,2.173c0.121,0.896-0.152,1.911-0.821,3.048L195.6,141.23z
				 M194.956,138.52c0.42-0.698,0.632-1.265,0.632-1.697c0.002-0.434-0.2-0.773-0.604-1.017c-0.394-0.236-0.775-0.26-1.144-0.069
				c-0.37,0.189-0.754,0.604-1.154,1.241l-1.234,2.048c-0.414,0.687-0.627,1.254-0.642,1.7c-0.014,0.447,0.184,0.794,0.598,1.042
				c0.408,0.246,0.799,0.264,1.173,0.053c0.375-0.211,0.765-0.645,1.169-1.299L194.956,138.52z"/>
			<path style="fill:#402624;" d="M202.393,145.323c-0.702,1.164-1.479,1.908-2.333,2.235c-0.853,0.326-1.744,0.209-2.672-0.35
				c-0.917-0.553-1.436-1.278-1.558-2.176c-0.12-0.897,0.152-1.914,0.822-3.051l0.934-1.549c0.708-1.175,1.489-1.92,2.344-2.235
				c0.854-0.315,1.74-0.197,2.657,0.356c0.918,0.553,1.438,1.276,1.56,2.172c0.122,0.896-0.151,1.912-0.82,3.048L202.393,145.323z
				 M201.748,142.613c0.42-0.698,0.631-1.264,0.632-1.697c0.001-0.434-0.2-0.772-0.605-1.016c-0.393-0.237-0.774-0.261-1.143-0.07
				c-0.37,0.19-0.754,0.604-1.154,1.241l-1.234,2.049c-0.413,0.687-0.627,1.253-0.642,1.699c-0.015,0.446,0.185,0.794,0.597,1.042
				c0.408,0.246,0.8,0.264,1.174,0.053c0.375-0.211,0.764-0.644,1.169-1.299L201.748,142.613z"/>
			<path style="fill:#402624;" d="M206.752,149.675c0.19-0.316,0.254-0.621,0.191-0.913c-0.063-0.293-0.256-0.645-0.581-1.056
				c-0.326-0.412-0.593-0.787-0.803-1.126c-0.211-0.339-0.363-0.676-0.459-1.009c-0.096-0.333-0.123-0.674-0.079-1.02
				c0.044-0.347,0.179-0.71,0.406-1.087c0.392-0.651,0.923-1.06,1.589-1.225c0.668-0.166,1.367-0.075,2.099,0.271l0.746-1.237
				l0.925,0.557l-0.756,1.254c0.623,0.508,0.987,1.113,1.087,1.817c0.101,0.705-0.075,1.433-0.528,2.184l-1.67-1.006
				c0.278-0.463,0.392-0.866,0.339-1.211c-0.052-0.344-0.239-0.613-0.559-0.806c-0.315-0.19-0.615-0.247-0.896-0.173
				c-0.281,0.074-0.517,0.27-0.708,0.586c-0.176,0.293-0.233,0.579-0.171,0.858c0.063,0.279,0.27,0.651,0.618,1.113
				c0.349,0.463,0.623,0.866,0.821,1.209c0.197,0.342,0.336,0.678,0.417,1.007c0.08,0.33,0.095,0.659,0.044,0.988
				c-0.052,0.329-0.183,0.668-0.395,1.019c-0.395,0.655-0.919,1.064-1.574,1.227c-0.655,0.162-1.362,0.063-2.123-0.295l-0.693,1.15
				l-0.919-0.554l0.69-1.145c-0.74-0.561-1.182-1.21-1.33-1.948c-0.146-0.737,0.019-1.5,0.495-2.29l1.67,1.007
				c-0.276,0.458-0.379,0.875-0.309,1.251c0.07,0.376,0.31,0.687,0.719,0.934c0.339,0.204,0.66,0.275,0.964,0.214
				C206.324,150.162,206.569,149.98,206.752,149.675z"/>
		</g>
		<g>
			<path style="fill:#402624;" d="M174.679,215.865l-1.904,0.425l-1.636-7.338l-2.115,1.211l-0.345-1.548l3.655-2.309l0.205-0.046
				L174.679,215.865z"/>
			<path style="fill:#402624;" d="M183.366,209.766c0.296,1.326,0.248,2.401-0.145,3.227c-0.393,0.826-1.118,1.355-2.176,1.592
				c-1.046,0.233-1.922,0.067-2.629-0.499c-0.707-0.566-1.211-1.491-1.511-2.775l-0.394-1.766c-0.299-1.339-0.248-2.419,0.153-3.236
				c0.4-0.818,1.124-1.343,2.169-1.576c1.045-0.232,1.921-0.068,2.628,0.496c0.706,0.564,1.21,1.488,1.51,2.771L183.366,209.766z
				 M181.03,208.249c-0.177-0.796-0.416-1.351-0.713-1.664c-0.299-0.316-0.678-0.421-1.139-0.318c-0.448,0.1-0.74,0.347-0.876,0.738
				c-0.136,0.394-0.128,0.958,0.022,1.696l0.52,2.334c0.174,0.782,0.411,1.341,0.708,1.673c0.298,0.331,0.682,0.446,1.151,0.342
				c0.466-0.104,0.761-0.361,0.886-0.773c0.125-0.41,0.107-0.993-0.051-1.746L181.03,208.249z"/>
			<path style="fill:#402624;" d="M191.107,208.039c0.296,1.327,0.248,2.402-0.145,3.228c-0.392,0.825-1.118,1.355-2.176,1.592
				c-1.046,0.232-1.922,0.067-2.629-0.5c-0.707-0.565-1.21-1.491-1.511-2.774l-0.394-1.766c-0.298-1.339-0.247-2.418,0.153-3.235
				c0.4-0.818,1.124-1.344,2.169-1.576c1.045-0.233,1.921-0.069,2.628,0.495c0.707,0.565,1.21,1.488,1.51,2.772L191.107,208.039z
				 M188.77,206.523c-0.178-0.796-0.415-1.351-0.714-1.665c-0.298-0.314-0.678-0.421-1.139-0.317c-0.448,0.1-0.74,0.346-0.875,0.738
				c-0.136,0.394-0.129,0.957,0.021,1.695l0.521,2.334c0.174,0.783,0.41,1.341,0.708,1.674c0.298,0.331,0.682,0.446,1.152,0.342
				c0.465-0.105,0.76-0.361,0.886-0.773c0.124-0.41,0.107-0.992-0.051-1.745L188.77,206.523z"/>
			<path style="fill:#402624;" d="M197.265,208.181c-0.08-0.36-0.244-0.624-0.492-0.793c-0.247-0.168-0.63-0.289-1.149-0.363
				c-0.518-0.071-0.971-0.159-1.358-0.26c-0.387-0.101-0.73-0.239-1.029-0.414c-0.3-0.175-0.553-0.403-0.761-0.684
				c-0.207-0.281-0.36-0.638-0.456-1.067c-0.166-0.742-0.064-1.403,0.305-1.983c0.368-0.58,0.936-0.997,1.705-1.252l-0.314-1.409
				l1.055-0.235l0.318,1.43c0.802-0.063,1.482,0.124,2.041,0.564c0.559,0.44,0.935,1.089,1.126,1.945l-1.904,0.424
				c-0.118-0.527-0.313-0.896-0.589-1.108c-0.276-0.215-0.596-0.28-0.96-0.199c-0.36,0.08-0.616,0.245-0.768,0.494
				c-0.152,0.248-0.188,0.553-0.108,0.912c0.075,0.334,0.23,0.58,0.469,0.739c0.238,0.159,0.644,0.284,1.216,0.38
				c0.571,0.093,1.047,0.194,1.427,0.307c0.38,0.111,0.712,0.259,0.998,0.442c0.284,0.183,0.522,0.41,0.713,0.685
				c0.189,0.272,0.329,0.609,0.418,1.009c0.167,0.746,0.068,1.404-0.293,1.974c-0.361,0.569-0.941,0.987-1.74,1.253l0.292,1.311
				l-1.047,0.233l-0.291-1.305c-0.922,0.105-1.69-0.06-2.305-0.491c-0.615-0.433-1.022-1.1-1.223-1.999l1.903-0.424
				c0.117,0.522,0.33,0.895,0.64,1.119c0.311,0.223,0.699,0.282,1.164,0.179c0.386-0.086,0.669-0.256,0.847-0.511
				C197.292,208.828,197.343,208.527,197.265,208.181z"/>
		</g>
		<g>
			<path style="fill:#402624;" d="M218.791,277.603l-1.102,1.609l-6.205-4.246l-0.719,2.329l-1.309-0.895l1.095-4.183l0.118-0.172
				L218.791,277.603z"/>
			<path style="fill:#402624;" d="M220.976,267.214c1.122,0.768,1.821,1.587,2.097,2.458c0.277,0.871,0.109,1.753-0.504,2.648
				c-0.604,0.884-1.358,1.36-2.263,1.429c-0.902,0.069-1.902-0.264-2.997-0.997l-1.493-1.021c-1.132-0.775-1.831-1.599-2.097-2.47
				c-0.265-0.871-0.095-1.749,0.509-2.633c0.605-0.884,1.357-1.361,2.259-1.431c0.902-0.07,1.9,0.261,2.996,0.994L220.976,267.214z
				 M218.234,267.701c-0.674-0.461-1.226-0.704-1.659-0.73c-0.432-0.025-0.782,0.156-1.049,0.546
				c-0.259,0.379-0.305,0.759-0.136,1.138c0.169,0.38,0.559,0.788,1.173,1.225l1.974,1.351c0.662,0.452,1.215,0.699,1.659,0.739
				c0.444,0.039,0.803-0.14,1.075-0.537c0.27-0.394,0.31-0.782,0.12-1.168c-0.189-0.387-0.599-0.801-1.23-1.243L218.234,267.701z"/>
			<path style="fill:#402624;" d="M225.455,260.67c1.122,0.768,1.82,1.586,2.097,2.457c0.277,0.871,0.109,1.754-0.504,2.648
				c-0.605,0.884-1.358,1.36-2.262,1.429c-0.902,0.069-1.902-0.263-2.998-0.997l-1.493-1.021c-1.132-0.774-1.831-1.599-2.097-2.47
				c-0.265-0.871-0.096-1.749,0.509-2.633c0.605-0.883,1.357-1.361,2.258-1.431c0.902-0.07,1.9,0.261,2.996,0.995L225.455,260.67z
				 M222.713,261.156c-0.674-0.461-1.226-0.704-1.659-0.73c-0.432-0.026-0.782,0.155-1.049,0.546
				c-0.259,0.378-0.305,0.758-0.136,1.138c0.169,0.379,0.56,0.787,1.173,1.224l1.974,1.351c0.662,0.453,1.215,0.699,1.66,0.739
				c0.444,0.039,0.803-0.139,1.075-0.536c0.269-0.394,0.31-0.783,0.121-1.169c-0.189-0.386-0.599-0.801-1.23-1.243L222.713,261.156z
				"/>
			<path style="fill:#402624;" d="M229.934,254.125c1.122,0.768,1.821,1.587,2.097,2.457c0.277,0.871,0.109,1.754-0.503,2.648
				c-0.605,0.884-1.358,1.36-2.262,1.429c-0.902,0.07-1.902-0.263-2.998-0.996l-1.493-1.021c-1.132-0.774-1.831-1.599-2.097-2.47
				c-0.265-0.871-0.095-1.748,0.51-2.632c0.605-0.884,1.357-1.361,2.258-1.432c0.902-0.069,1.9,0.262,2.996,0.995L229.934,254.125z
				 M227.191,254.611c-0.674-0.46-1.226-0.704-1.658-0.729c-0.433-0.026-0.782,0.155-1.049,0.546
				c-0.26,0.379-0.305,0.758-0.136,1.138c0.168,0.38,0.559,0.788,1.173,1.224l1.974,1.35c0.662,0.453,1.215,0.699,1.659,0.739
				c0.445,0.039,0.803-0.139,1.075-0.536c0.269-0.394,0.31-0.783,0.121-1.169c-0.189-0.386-0.599-0.8-1.23-1.242L227.191,254.611z"
				/>
			<path style="fill:#402624;" d="M234.531,250.024c-0.305-0.208-0.604-0.289-0.9-0.243c-0.296,0.046-0.659,0.219-1.088,0.519
				c-0.429,0.302-0.819,0.547-1.171,0.737c-0.351,0.19-0.696,0.323-1.034,0.399c-0.338,0.077-0.679,0.083-1.023,0.02
				c-0.344-0.064-0.698-0.22-1.062-0.469c-0.628-0.43-1.005-0.981-1.131-1.657c-0.127-0.675,0.004-1.368,0.393-2.079l-1.192-0.816
				l0.61-0.891l1.208,0.826c0.544-0.593,1.169-0.92,1.878-0.98c0.708-0.059,1.425,0.158,2.148,0.653l-1.101,1.609
				c-0.445-0.305-0.841-0.44-1.188-0.407c-0.348,0.031-0.626,0.202-0.837,0.511c-0.209,0.304-0.284,0.599-0.225,0.885
				c0.058,0.285,0.24,0.532,0.544,0.74c0.282,0.193,0.564,0.267,0.847,0.22c0.283-0.046,0.665-0.23,1.148-0.553
				c0.481-0.321,0.899-0.571,1.253-0.749c0.353-0.178,0.697-0.298,1.031-0.358c0.333-0.061,0.661-0.056,0.987,0.015
				c0.325,0.069,0.657,0.221,0.995,0.451c0.631,0.433,1.009,0.98,1.133,1.643c0.124,0.663-0.014,1.364-0.417,2.102l1.108,0.759
				l-0.606,0.886l-1.104-0.755c-0.602,0.706-1.275,1.11-2.02,1.214c-0.745,0.104-1.497-0.105-2.258-0.625l1.101-1.609
				c0.442,0.302,0.851,0.429,1.231,0.381c0.379-0.049,0.704-0.27,0.973-0.663c0.224-0.327,0.314-0.645,0.271-0.952
				C234.992,250.48,234.825,250.226,234.531,250.024z"/>
		</g>
		<g>
			<path style="fill:#402624;" d="M292.779,297.219l-5.013,0.372l-1.024-5.412l1.598-0.303l0.727,3.841l2.121-0.154
				c-0.329-0.409-0.542-0.871-0.64-1.384c-0.174-0.92-0.025-1.693,0.446-2.323c0.473-0.629,1.221-1.042,2.246-1.236
				c0.623-0.117,1.207-0.092,1.749,0.078c0.543,0.169,0.997,0.474,1.361,0.913c0.365,0.44,0.61,0.992,0.737,1.66
				c0.11,0.583,0.095,1.147-0.048,1.691c-0.142,0.545-0.399,1.002-0.773,1.374c-0.374,0.371-0.834,0.616-1.379,0.737l-0.358-1.896
				c0.395-0.116,0.681-0.316,0.858-0.599c0.178-0.284,0.229-0.62,0.156-1.009c-0.082-0.434-0.301-0.737-0.657-0.914
				c-0.356-0.175-0.82-0.209-1.39-0.101c-0.548,0.104-0.942,0.319-1.184,0.643c-0.241,0.325-0.314,0.734-0.221,1.23
				c0.087,0.456,0.275,0.803,0.567,1.04l0.209,0.153L292.779,297.219z"/>
			<path style="fill:#402624;" d="M290.884,283.07c1.335-0.253,2.409-0.17,3.221,0.249c0.811,0.419,1.318,1.16,1.521,2.225
				c0.199,1.053,0.004,1.924-0.584,2.612c-0.589,0.688-1.529,1.162-2.823,1.42l-1.776,0.336c-1.349,0.256-2.425,0.17-3.23-0.258
				c-0.805-0.427-1.306-1.165-1.505-2.218c-0.199-1.053-0.006-1.923,0.58-2.611c0.587-0.688,1.526-1.161,2.818-1.418L290.884,283.07
				z M289.293,285.356c-0.802,0.151-1.364,0.371-1.688,0.659c-0.324,0.288-0.442,0.664-0.354,1.128
				c0.086,0.451,0.323,0.751,0.711,0.899c0.388,0.149,0.952,0.159,1.693,0.033l2.351-0.444c0.787-0.149,1.353-0.368,1.695-0.654
				c0.342-0.287,0.468-0.667,0.379-1.141c-0.089-0.468-0.337-0.772-0.744-0.909c-0.406-0.139-0.988-0.141-1.747-0.006
				L289.293,285.356z"/>
			<path style="fill:#402624;" d="M291.224,276.919c-0.363,0.069-0.632,0.225-0.809,0.465c-0.177,0.242-0.31,0.621-0.399,1.137
				c-0.09,0.518-0.191,0.967-0.305,1.351c-0.113,0.383-0.262,0.722-0.446,1.015c-0.185,0.294-0.422,0.54-0.709,0.738
				c-0.287,0.198-0.647,0.34-1.081,0.422c-0.747,0.142-1.404,0.018-1.973-0.368c-0.567-0.388-0.966-0.97-1.195-1.745l-1.42,0.269
				l-0.201-1.062l1.44-0.272c-0.037-0.803,0.173-1.478,0.631-2.022s1.117-0.898,1.979-1.061l0.363,1.917
				c-0.531,0.101-0.907,0.285-1.129,0.554c-0.221,0.269-0.297,0.586-0.228,0.953c0.069,0.362,0.225,0.623,0.468,0.784
				c0.243,0.16,0.546,0.206,0.909,0.137c0.336-0.063,0.586-0.212,0.753-0.444c0.167-0.233,0.306-0.635,0.418-1.202
				c0.113-0.569,0.23-1.042,0.354-1.418c0.124-0.375,0.281-0.703,0.474-0.982c0.192-0.279,0.428-0.509,0.708-0.69
				c0.279-0.182,0.62-0.31,1.021-0.386c0.752-0.143,1.407-0.023,1.964,0.356c0.558,0.38,0.956,0.973,1.195,1.779l1.32-0.25
				l0.199,1.055l-1.314,0.248c0.075,0.926-0.114,1.688-0.565,2.289c-0.452,0.601-1.131,0.986-2.037,1.158l-0.363-1.916
				c0.526-0.1,0.906-0.302,1.14-0.605c0.233-0.302,0.306-0.688,0.216-1.157c-0.073-0.389-0.234-0.678-0.482-0.863
				C291.871,276.913,291.572,276.853,291.224,276.919z"/>
		</g>
		<g>
			<path style="fill:#402624;" d="M359.398,247.069l5.511,3.874l-0.769,1.094l-4.549,0.943c-0.632,0.139-1.135,0.294-1.511,0.464
				c-0.376,0.171-0.655,0.386-0.84,0.647c-0.251,0.357-0.358,0.701-0.321,1.032c0.037,0.331,0.224,0.614,0.559,0.851
				c0.36,0.253,0.732,0.329,1.114,0.227c0.384-0.102,0.717-0.355,1.001-0.761l1.602,1.126c-0.345,0.489-0.775,0.854-1.295,1.095
				c-0.518,0.241-1.07,0.326-1.659,0.256c-0.59-0.07-1.155-0.296-1.694-0.676c-0.83-0.583-1.332-1.233-1.511-1.953
				c-0.18-0.72-0.014-1.442,0.496-2.167c0.279-0.397,0.667-0.729,1.163-0.998c0.495-0.267,1.188-0.498,2.073-0.695l3.183-0.643
				l-3.457-2.43L359.398,247.069z"/>
			<path style="fill:#402624;" d="M350.674,245.902c0.781-1.111,1.609-1.801,2.483-2.065c0.874-0.266,1.755-0.087,2.642,0.536
				c0.877,0.617,1.343,1.376,1.4,2.28c0.058,0.903-0.287,1.899-1.035,2.985l-1.04,1.479c-0.789,1.123-1.621,1.812-2.495,2.065
				c-0.875,0.255-1.75,0.074-2.625-0.542c-0.877-0.616-1.344-1.375-1.403-2.277c-0.059-0.901,0.285-1.896,1.032-2.982
				L350.674,245.902z M351.125,248.65c-0.469,0.667-0.719,1.217-0.75,1.649c-0.032,0.432,0.146,0.783,0.533,1.056
				c0.375,0.264,0.754,0.314,1.135,0.149c0.383-0.163,0.795-0.549,1.239-1.156l1.375-1.956c0.461-0.656,0.714-1.207,0.761-1.65
				c0.044-0.444-0.13-0.805-0.523-1.082c-0.39-0.273-0.779-0.319-1.168-0.135c-0.388,0.184-0.807,0.588-1.257,1.213L351.125,248.65z
				"/>
			<path style="fill:#402624;" d="M344.185,241.341c0.782-1.111,1.609-1.8,2.484-2.065c0.874-0.265,1.754-0.086,2.641,0.537
				c0.877,0.616,1.343,1.376,1.401,2.28c0.057,0.903-0.288,1.899-1.035,2.985l-1.04,1.48c-0.789,1.122-1.621,1.811-2.496,2.065
				c-0.874,0.254-1.75,0.074-2.625-0.543c-0.877-0.615-1.344-1.375-1.402-2.276c-0.06-0.902,0.284-1.897,1.032-2.982
				L344.185,241.341z M344.637,244.09c-0.469,0.667-0.718,1.216-0.75,1.648c-0.031,0.432,0.147,0.783,0.533,1.056
				c0.375,0.265,0.754,0.314,1.136,0.15c0.382-0.163,0.795-0.55,1.238-1.157l1.375-1.956c0.461-0.656,0.714-1.206,0.761-1.65
				c0.045-0.444-0.129-0.805-0.523-1.081c-0.39-0.274-0.779-0.32-1.166-0.136c-0.39,0.185-0.809,0.589-1.259,1.214L344.637,244.09z"
				/>
			<path style="fill:#402624;" d="M337.697,236.78c0.782-1.112,1.61-1.8,2.484-2.066c0.874-0.266,1.755-0.087,2.642,0.537
				c0.876,0.615,1.343,1.375,1.4,2.279c0.058,0.903-0.288,1.899-1.035,2.985l-1.04,1.479c-0.789,1.123-1.621,1.812-2.496,2.065
				c-0.874,0.255-1.748,0.074-2.625-0.542c-0.877-0.616-1.344-1.375-1.402-2.277c-0.059-0.901,0.285-1.896,1.032-2.982
				L337.697,236.78z M338.149,239.528c-0.469,0.667-0.719,1.217-0.75,1.649c-0.032,0.432,0.146,0.783,0.532,1.055
				c0.376,0.265,0.755,0.314,1.136,0.15c0.382-0.163,0.795-0.549,1.238-1.156l1.375-1.957c0.461-0.655,0.715-1.206,0.761-1.65
				c0.045-0.443-0.129-0.805-0.522-1.081c-0.39-0.274-0.779-0.319-1.167-0.135c-0.389,0.184-0.809,0.588-1.258,1.213
				L338.149,239.528z"/>
			<path style="fill:#402624;" d="M333.655,232.132c-0.212,0.302-0.297,0.601-0.255,0.897c0.042,0.296,0.21,0.66,0.506,1.094
				c0.295,0.434,0.535,0.826,0.721,1.18c0.186,0.354,0.315,0.7,0.388,1.039c0.072,0.34,0.074,0.681,0.006,1.023
				c-0.067,0.343-0.227,0.695-0.481,1.056c-0.438,0.622-0.995,0.992-1.672,1.11c-0.677,0.118-1.368-0.021-2.074-0.418l-0.83,1.182
				l-0.883-0.621l0.842-1.199c-0.586-0.55-0.905-1.18-0.956-1.889c-0.052-0.71,0.175-1.424,0.68-2.142l1.596,1.121
				c-0.31,0.442-0.452,0.837-0.424,1.184c0.028,0.348,0.196,0.629,0.501,0.843c0.303,0.213,0.595,0.291,0.883,0.236
				c0.285-0.055,0.534-0.232,0.746-0.534c0.197-0.28,0.273-0.561,0.23-0.845c-0.043-0.283-0.222-0.668-0.537-1.153
				c-0.316-0.486-0.561-0.907-0.734-1.264c-0.173-0.354-0.289-0.7-0.346-1.034c-0.056-0.334-0.047-0.663,0.026-0.988
				c0.075-0.324,0.229-0.654,0.465-0.989c0.44-0.625,0.992-0.996,1.656-1.112c0.665-0.115,1.364,0.032,2.098,0.443l0.772-1.1
				l0.878,0.618l-0.769,1.093c0.697,0.612,1.094,1.29,1.19,2.036c0.094,0.746-0.124,1.496-0.654,2.251l-1.596-1.122
				c0.308-0.438,0.44-0.847,0.395-1.227c-0.044-0.38-0.26-0.706-0.65-0.98c-0.323-0.228-0.64-0.322-0.947-0.283
				C334.117,231.676,333.859,231.841,333.655,232.132z"/>
		</g>
		<g>
			<path style="fill:#402624;" d="M376.093,180.564l2.337-9.238l2.031-0.333l-2.421,8.761l4.822-0.79l0.254,1.552l-6.847,1.122
				L376.093,180.564z"/>
			<path style="fill:#402624;" d="M367.577,177.223c-0.22-1.342-0.11-2.413,0.328-3.213c0.438-0.802,1.193-1.291,2.263-1.466
				c1.058-0.173,1.923,0.043,2.597,0.648c0.673,0.606,1.124,1.558,1.351,2.856l0.292,1.785c0.222,1.354,0.11,2.428-0.337,3.222
				c-0.446,0.793-1.198,1.276-2.255,1.45c-1.057,0.173-1.922-0.041-2.596-0.645c-0.674-0.604-1.123-1.554-1.351-2.854
				L367.577,177.223z M369.824,178.869c0.132,0.805,0.338,1.373,0.617,1.703c0.28,0.331,0.652,0.458,1.119,0.381
				c0.453-0.074,0.759-0.303,0.917-0.687c0.158-0.385,0.183-0.948,0.074-1.694l-0.387-2.36c-0.13-0.791-0.333-1.361-0.611-1.71
				c-0.278-0.348-0.656-0.484-1.131-0.407c-0.471,0.077-0.78,0.317-0.929,0.721c-0.147,0.403-0.164,0.985-0.049,1.746
				L369.824,178.869z"/>
			<path style="fill:#402624;" d="M359.751,178.506c-0.22-1.342-0.11-2.413,0.328-3.214c0.438-0.802,1.193-1.291,2.263-1.466
				c1.058-0.173,1.923,0.042,2.597,0.648c0.673,0.605,1.124,1.558,1.351,2.856l0.292,1.785c0.222,1.353,0.11,2.428-0.337,3.222
				c-0.446,0.793-1.198,1.277-2.255,1.45c-1.058,0.173-1.922-0.041-2.596-0.645c-0.674-0.604-1.123-1.554-1.351-2.853
				L359.751,178.506z M361.998,180.152c0.132,0.805,0.338,1.373,0.617,1.703c0.28,0.331,0.652,0.458,1.119,0.381
				c0.453-0.074,0.759-0.303,0.917-0.686c0.158-0.385,0.183-0.949,0.074-1.694l-0.387-2.36c-0.13-0.791-0.333-1.361-0.611-1.71
				c-0.278-0.348-0.656-0.484-1.131-0.406c-0.471,0.077-0.78,0.317-0.929,0.721c-0.148,0.403-0.164,0.986-0.049,1.746
				L361.998,180.152z"/>
			<path style="fill:#402624;" d="M353.611,178.014c0.06,0.364,0.208,0.637,0.444,0.819c0.237,0.182,0.613,0.325,1.128,0.428
				c0.514,0.101,0.96,0.214,1.341,0.336c0.38,0.122,0.715,0.28,1.004,0.472c0.289,0.191,0.529,0.434,0.721,0.726
				c0.191,0.292,0.323,0.656,0.395,1.091c0.123,0.751-0.017,1.405-0.417,1.964c-0.401,0.557-0.992,0.941-1.775,1.151l0.233,1.426
				l-1.065,0.174l-0.236-1.444c-0.805,0.017-1.473-0.208-2.006-0.681c-0.533-0.47-0.871-1.14-1.014-2.005l1.926-0.316
				c0.087,0.533,0.263,0.913,0.525,1.141c0.263,0.229,0.579,0.313,0.947,0.252c0.365-0.06,0.63-0.209,0.795-0.448
				c0.167-0.24,0.22-0.541,0.159-0.906c-0.055-0.337-0.196-0.591-0.426-0.764c-0.228-0.172-0.626-0.321-1.191-0.448
				c-0.565-0.126-1.035-0.254-1.407-0.388c-0.373-0.133-0.696-0.298-0.972-0.498c-0.273-0.199-0.498-0.439-0.672-0.724
				c-0.174-0.284-0.295-0.628-0.361-1.031c-0.123-0.755,0.012-1.407,0.405-1.955c0.393-0.548,0.996-0.931,1.809-1.152l-0.218-1.325
				l1.06-0.174l0.216,1.319c0.927-0.051,1.685,0.155,2.273,0.623c0.59,0.466,0.959,1.154,1.108,2.064l-1.925,0.316
				c-0.087-0.528-0.279-0.912-0.576-1.153c-0.297-0.241-0.681-0.324-1.151-0.246c-0.391,0.064-0.683,0.218-0.875,0.462
				C353.621,177.366,353.554,177.663,353.611,178.014z"/>
		</g>
		<g>
			<path style="fill:#402624;" d="M337.05,102.634l3.83,3.255l-3.07,4.572l-1.351-0.907l2.179-3.244l-1.618-1.379
				c-0.054,0.522-0.225,1-0.516,1.434c-0.521,0.777-1.172,1.224-1.949,1.341c-0.779,0.117-1.602-0.116-2.467-0.697
				c-0.527-0.354-0.925-0.782-1.192-1.284c-0.266-0.502-0.376-1.037-0.327-1.606c0.049-0.569,0.264-1.135,0.642-1.699
				c0.331-0.493,0.738-0.884,1.222-1.171c0.482-0.288,0.988-0.433,1.515-0.434c0.526-0.001,1.027,0.146,1.5,0.442l-1.076,1.602
				c-0.363-0.194-0.707-0.253-1.032-0.176c-0.326,0.077-0.599,0.28-0.819,0.608c-0.246,0.366-0.304,0.736-0.174,1.111
				c0.131,0.374,0.438,0.724,0.919,1.047c0.463,0.311,0.895,0.436,1.294,0.374c0.398-0.063,0.74-0.303,1.021-0.721
				c0.259-0.385,0.368-0.764,0.326-1.139l-0.04-0.254L337.05,102.634z"/>
			<path style="fill:#402624;" d="M328.463,114.038c-1.127-0.758-1.833-1.571-2.117-2.438c-0.285-0.869-0.124-1.753,0.481-2.653
				c0.597-0.889,1.345-1.372,2.248-1.448c0.903-0.077,1.905,0.247,3.007,0.97l1.501,1.008c1.14,0.765,1.847,1.582,2.119,2.452
				c0.272,0.869,0.11,1.748-0.487,2.637c-0.597,0.889-1.346,1.373-2.246,1.45c-0.9,0.078-1.902-0.244-3.004-0.969L328.463,114.038z
				 M331.201,113.528c0.678,0.455,1.232,0.693,1.665,0.715c0.432,0.022,0.78-0.163,1.044-0.555c0.256-0.381,0.299-0.761,0.126-1.138
				c-0.171-0.379-0.565-0.783-1.183-1.214l-1.985-1.333c-0.666-0.447-1.222-0.689-1.666-0.725c-0.445-0.035-0.802,0.146-1.07,0.546
				c-0.267,0.396-0.303,0.786-0.11,1.17c0.192,0.384,0.606,0.794,1.239,1.231L331.201,113.528z"/>
			<path style="fill:#402624;" d="M324.042,120.622c-1.128-0.758-1.834-1.571-2.118-2.438c-0.285-0.869-0.123-1.753,0.482-2.653
				c0.597-0.889,1.346-1.372,2.248-1.448c0.903-0.078,1.905,0.247,3.007,0.97l1.502,1.008c1.139,0.765,1.846,1.583,2.118,2.451
				c0.272,0.869,0.11,1.748-0.487,2.637c-0.597,0.889-1.346,1.373-2.246,1.45c-0.9,0.078-1.902-0.245-3.003-0.969L324.042,120.622z
				 M326.779,120.111c0.678,0.455,1.232,0.693,1.665,0.715c0.432,0.021,0.781-0.163,1.044-0.555
				c0.256-0.381,0.299-0.761,0.126-1.139c-0.171-0.378-0.565-0.783-1.183-1.214l-1.985-1.333c-0.666-0.447-1.221-0.689-1.666-0.725
				c-0.445-0.035-0.802,0.146-1.07,0.546c-0.267,0.396-0.303,0.786-0.11,1.17c0.192,0.384,0.605,0.794,1.239,1.231L326.779,120.111z
				"/>
			<path style="fill:#402624;" d="M319.62,127.205c-1.128-0.758-1.834-1.571-2.118-2.438c-0.285-0.869-0.123-1.753,0.481-2.653
				c0.597-0.889,1.346-1.372,2.248-1.448c0.903-0.077,1.905,0.247,3.008,0.971l1.501,1.008c1.14,0.766,1.846,1.583,2.118,2.452
				c0.272,0.869,0.11,1.748-0.487,2.637c-0.597,0.889-1.346,1.372-2.246,1.45c-0.9,0.078-1.902-0.245-3.003-0.968L319.62,127.205z
				 M322.357,126.695c0.678,0.454,1.232,0.692,1.665,0.715c0.432,0.022,0.781-0.163,1.044-0.555
				c0.256-0.381,0.299-0.761,0.126-1.139c-0.171-0.379-0.565-0.783-1.183-1.214l-1.985-1.334c-0.666-0.447-1.221-0.689-1.666-0.725
				c-0.444-0.035-0.802,0.146-1.07,0.546c-0.267,0.396-0.303,0.786-0.11,1.17c0.193,0.384,0.605,0.794,1.239,1.231L322.357,126.695z
				"/>
			<path style="fill:#402624;" d="M315.059,131.345c0.306,0.206,0.606,0.284,0.902,0.236c0.295-0.049,0.656-0.225,1.083-0.529
				c0.426-0.305,0.815-0.554,1.165-0.747c0.349-0.194,0.692-0.33,1.03-0.409c0.337-0.08,0.679-0.089,1.022-0.029
				c0.345,0.061,0.7,0.214,1.065,0.46c0.632,0.424,1.014,0.973,1.147,1.647c0.132,0.674,0.007,1.368-0.375,2.081l1.199,0.806
				l-0.602,0.896l-1.216-0.816c-0.538,0.598-1.16,0.931-1.869,0.997c-0.709,0.066-1.427-0.146-2.155-0.635l1.087-1.619
				c0.448,0.301,0.846,0.434,1.192,0.398c0.347-0.036,0.625-0.208,0.833-0.519c0.205-0.306,0.277-0.601,0.216-0.887
				c-0.06-0.285-0.243-0.53-0.55-0.735c-0.283-0.191-0.567-0.262-0.85-0.212c-0.282,0.048-0.662,0.236-1.142,0.562
				s-0.894,0.58-1.246,0.761c-0.353,0.181-0.694,0.303-1.027,0.366c-0.332,0.064-0.662,0.063-0.988-0.005
				c-0.326-0.067-0.659-0.215-0.999-0.443c-0.635-0.427-1.018-0.971-1.148-1.633c-0.129-0.662,0.004-1.364,0.398-2.107l-1.113-0.749
				l0.598-0.891l1.109,0.746c0.597-0.711,1.267-1.122,2.01-1.232c0.744-0.11,1.498,0.092,2.264,0.606l-1.088,1.619
				c-0.443-0.298-0.855-0.422-1.234-0.37c-0.378,0.052-0.701,0.275-0.967,0.671c-0.221,0.329-0.309,0.646-0.263,0.954
				C314.593,130.894,314.763,131.146,315.059,131.345z"/>
		</g>
	</g>
</g>
</svg>
