<svg height="256px" width="256px" version="1.1" id="Layer_1" xmlns="http://www.w3.org/2000/svg" xmlns:xlink="http://www.w3.org/1999/xlink" viewBox="0 0 512.001 512.001" xml:space="preserve" fill="#ffffff" stroke="#ffffff"><g id="SVGRepo_bgCarrier" stroke-width="0"></g><g id="SVGRepo_tracerCarrier" stroke-linecap="round" stroke-linejoin="round"></g><g id="SVGRepo_iconCarrier"> <path style="fill:#0000;" d="M214.58,417.163C102.699,417.163,12,326.465,12,214.582S102.699,12.001,214.58,12.001 s202.581,90.698,202.581,202.581C417.038,326.413,326.411,417.039,214.58,417.163z"></path> <path style="fill:#0000999999;" d="M214.58,23.993c105.259,0,190.588,85.329,190.588,190.588S319.84,405.17,214.58,405.17 S23.993,319.842,23.993,214.582l0,0C24.111,109.372,109.372,24.113,214.58,23.993 M214.58,0.01C96.075,0.005,0.004,96.069,0,214.575 s96.06,214.576,214.565,214.58c118.505,0.004,214.576-96.06,214.58-214.565c0-0.003,0-0.005,0-0.008 C429.145,96.08,333.083,0.014,214.58,0.01z"></path> <path d="M386.118,342.187l115.677,112.926c13.181,12.595,13.657,33.491,1.062,46.672c-12.595,13.181-33.491,13.657-46.672,1.062 c-0.219-0.21-0.435-0.421-0.648-0.637L339.852,389.292"></path> </g></svg>
